<?xml version="1.0" encoding="UTF-8" standalone="no"?>
<!-- Created with Inkscape (http://www.inkscape.org/) -->
<svg
   xmlns:dc="http://purl.org/dc/elements/1.1/"
   xmlns:cc="http://web.resource.org/cc/"
   xmlns:rdf="http://www.w3.org/1999/02/22-rdf-syntax-ns#"
   xmlns:svg="http://www.w3.org/2000/svg"
   xmlns="http://www.w3.org/2000/svg"
   xmlns:sodipodi="http://sodipodi.sourceforge.net/DTD/sodipodi-0.dtd"
   xmlns:inkscape="http://www.inkscape.org/namespaces/inkscape"
   id="svg1923"
   sodipodi:version="0.32"
   inkscape:version="0.44"
   width="163"
   height="240"
   version="1.0"
   sodipodi:docbase="C:\Documents and Settings\Administrator\My Documents\My Pictures\vikipedi"
   sodipodi:docname="Hacettepe Universitesi Logosu.svg">
  <metadata
     id="metadata1928">
    <rdf:RDF>
      <cc:Work
         rdf:about="">
        <dc:format>image/svg+xml</dc:format>
        <dc:type
           rdf:resource="http://purl.org/dc/dcmitype/StillImage" />
      </cc:Work>
    </rdf:RDF>
  </metadata>
  <defs
     id="defs1926" />
  <sodipodi:namedview
     inkscape:window-height="994"
     inkscape:window-width="1680"
     inkscape:pageshadow="2"
     inkscape:pageopacity="1"
     guidetolerance="10.0"
     gridtolerance="10.0"
     objecttolerance="10.0"
     borderopacity="1.0"
     bordercolor="#666666"
     pagecolor="white"
     id="base"
     inkscape:zoom="1.5708333"
     inkscape:cx="81.5"
     inkscape:cy="120"
     inkscape:window-x="1676"
     inkscape:window-y="-4"
     inkscape:current-layer="svg1923" />
  <path
     style="fill:#e20a16;fill-opacity:1"
     d="M 56.5,238.48069 C 44.42586,236.76467 31.57343,233.62146 23.63311,230.44273 L 17.10779,227.83047 L 14.628706,220.16523 C 8.0506508,199.8261 2.7609398,168.96612 0.84646776,139.76014 C -1.6271182,102.0247 4.2058288,52.979859 15.045701,20.36953 L 17.08351,14.23906 L 25.79175,10.62801 C 52.74319,-0.54794297 88.37517,-2.7049979 119.57597,4.9505904 C 129.11101,7.2901577 145.19083,12.8575 146.66195,14.328613 C 146.8202,14.486866 148.53088,20.385678 150.46345,27.437086 C 154.45602,42.004784 159.17441,69.830292 161.15709,90.5 C 162.81987,107.83473 162.80908,144.78722 161.13695,159.5 C 159.22361,176.33506 153.41022,205.15169 148.40688,222.60224 C 146.74928,228.38361 146.46338,228.57523 132.68202,233.14191 C 114.98552,239.00593 78.28976,241.57754 56.5,238.48069 z M 112.69984,229.09572 C 123.46705,227.22181 136.22625,223.82787 138.82524,222.14637 C 140.58818,221.00578 146.30279,198.06106 150.14178,176.70938 C 152.85868,161.59853 153.297,143.84459 153.7363,122.79482 C 154.32373,94.647465 153.03489,87.80021 148.96209,63 C 146.37955,47.274283 140.84023,21.422565 139.87627,20.596925 C 138.47547,19.397133 124.03457,14.379414 116.07364,12.326324 C 108.31414,10.325182 103.07815,9.7489725 88.44208,9.2855345 C 68.37927,8.6502621 60.23501,9.4807945 42.42201,13.97855 C 26.29293,18.051121 24.13703,19.371888 21.82887,26.594546 C 18.81477,36.026182 15.175901,52.746228 12.43813,69.743551 C 6.1493478,108.78717 8.8643638,164.85271 18.98519,204.94132 C 23.6513,223.42382 22.06111,221.79247 40.5,227.013 C 55.59639,231.28719 93.77927,232.38863 112.69984,229.09572 z M 64,225.51518 C 63.175,225.30211 57.79784,224.38126 52.05076,223.46883 C 46.30367,222.55641 38.60198,220.69806 34.93588,219.33917 L 28.27026,216.86845 L 26.10013,209.68423 C 17.78851,182.16853 12.88785,135.64269 14.846784,102.84738 C 16.81741,69.856402 24.67938,28.326453 29.7132,24.317305 C 31.77721,22.673434 43.10244,19.336991 54.1874,17.107136 C 76.63427,12.591714 103.47181,13.907788 123.95091,20.528238 L 134.94511,24.082426 L 136.00445,28.291213 C 136.58709,30.606046 137.91313,35.875 138.95121,40 C 143.32504,57.38016 147.77793,92.283954 148.647,116 C 149.66182,143.69368 146.23032,173.64474 138.52115,204.38097 L 135.23068,217.5 L 130.41907,219.30521 C 120.85715,222.89262 104.4104,225.11845 84.5,225.51969 C 74.05,225.73028 64.825,225.72825 64,225.51518 z M 70.92776,200.45526 C 66.847661,179.53824 64.02265,157.60478 64.00869,146.7353 C 64.00026,140.17603 64.09869,139.90994 67.25,137.97305 C 77.85616,131.45418 96.15789,132.34267 105.85815,139.84736 L 108.2163,141.67176 C 108.2163,141.67176 95,209.48546 95,210.37771 C 95,212.03184 97.48385,212.64416 98.371,211.20873 C 98.63996,210.77354 117,142.35636 117,140.58395 C 117,137.8201 108.59439,130.15492 102.6058,127.45771 C 94.87907,123.97764 82.31312,123.27335 74.30529,125.87154 C 70.8982,126.97698 66.88718,128.68304 65.39191,129.66278 L 62.67325,131.44411 L 63.3659,113.69806 C 64.52975,83.87952 67.99134,61.408574 73.11614,50.404182 C 75.18462,45.962576 78.13205,42.228419 83.9775,36.643711 C 95.6641,25.478398 94.89102,25.212813 78.24332,34.673793 C 66.06136,41.59687 53.30306,47.791641 44.25,51.179203 C 41.3625,52.259675 39,53.561366 39,54.071849 C 39,55.277189 40.20609,55.242386 46.98945,53.841306 C 53.88088,52.417904 57.77186,53.242829 58.5365,56.289391 C 58.84832,57.531804 58.20673,65.512451 57.11073,74.024162 C 52.93996,106.41509 53.66306,140.78724 59.10878,169 C 62.00741,184.01698 69.16522,211.37337 70.4133,212.20464 C 72.64081,213.68826 72.799971,210.05333 70.92776,200.45526 z "
     id="path1932"
     sodipodi:nodetypes="ccccscccsssssssccssssssssssssccscccssscccsscccsccssccssssscccsssssssssss" />
</svg>
