<svg width="1281" height="282" viewBox="0 0 1281 282" fill="none" xmlns="http://www.w3.org/2000/svg">
<path d="M491.803 68.7744H523.875V87.8235C529.662 75.2847 544.131 65.1572 561.976 65.1572C587.055 65.1572 599.354 76.0083 605.141 89.5116C611.652 75.7672 627.809 65.1572 647.101 65.1572C688.337 65.1572 696.536 93.3697 696.536 118.929V205.736H664.463V125.199C664.463 102.532 655.541 92.646 638.902 92.646C622.745 92.646 609.964 100.603 609.964 133.156V205.736H577.892V124.958C577.892 102.291 569.693 92.646 552.813 92.646C536.656 92.646 523.393 100.603 523.393 133.156V205.736H491.32V68.7744H491.803Z" fill="#09087A"/>
<path d="M720.166 163.782H752.238C752.238 175.598 763.813 183.796 780.211 183.796C792.269 183.796 799.985 177.285 799.985 167.64C799.985 159.924 796.85 155.343 782.14 151.484L754.891 144.251C735.84 138.946 724.989 125.201 724.989 105.67C724.989 82.5215 747.174 65.4014 777.559 65.4014C811.078 65.4014 831.576 81.5568 831.576 108.081H800.226C800.226 96.5068 791.304 89.7553 776.353 89.7553C764.778 89.7553 756.579 95.5425 756.579 103.741C756.579 110.975 760.919 116.039 773.7 119.656L800.95 127.613C820.242 133.159 832.781 147.385 832.781 166.676C832.781 193.441 811.801 209.356 778.764 209.356C745.004 209.115 720.166 189.824 720.166 163.782Z" fill="#09087A"/>
<path d="M923.94 134.361L983.261 205.735H941.302L890.661 143.042V205.735H858.83V0.0517578H890.661V129.056L942.749 68.7739H983.261L923.94 134.361Z" fill="#09087A"/>
<path d="M996.519 183.067C996.519 169.563 1007.37 158.472 1021.12 158.472C1034.86 158.472 1046.19 169.563 1046.19 183.067C1046.19 196.57 1035.1 208.144 1021.12 208.144C1007.13 208.144 996.519 196.57 996.519 183.067Z" fill="#09087A"/>
<path d="M1062.35 137.255C1062.35 96.9865 1087.91 65.1572 1130.59 65.1572C1148.92 65.1572 1165.32 73.3557 1173.76 87.1001V68.533H1205.59V205.495H1173.76V186.928C1165.32 200.672 1146.51 208.871 1129.63 208.871C1085.74 209.112 1062.35 177.524 1062.35 137.255ZM1174.96 137.255C1174.96 113.866 1161.7 93.8517 1134.45 93.8517C1109.37 93.8517 1094.42 112.419 1094.42 137.255C1094.42 162.333 1109.37 180.659 1134.45 180.659C1161.7 180.659 1174.96 160.645 1174.96 137.255Z" fill="#09087A"/>
<path d="M1232.84 25.1278C1232.84 11.8657 1242.49 1.25586 1256.71 1.25586C1270.94 1.25586 1280.59 11.8657 1280.59 25.1278C1280.59 38.39 1270.94 48.9994 1256.71 48.9994C1242.49 48.9994 1232.84 38.39 1232.84 25.1278ZM1240.8 68.7722H1272.63V205.734H1240.8V68.7722Z" fill="#09087A"/>
<path opacity="0.5" d="M225.797 75.8398H234.041H242.31C246.797 75.8398 249.849 81.1245 249.849 81.1245V81.1721H249.873L322.577 207.163C321.475 207.901 320.278 208.496 318.819 208.496H310.575H302.306C297.819 208.496 294.767 203.211 294.767 203.211V203.164H294.743L222.055 77.1729C223.149 76.435 224.354 75.8398 225.804 75.8398H225.797Z" fill="#09087A"/>
<path opacity="0.5" d="M174.813 75.8398H183.058H191.327C195.814 75.8398 198.866 81.1245 198.866 81.1245V81.1721H198.889L271.594 207.163C270.492 207.901 269.295 208.496 267.836 208.496H259.591H251.323C246.836 208.496 243.784 203.211 243.784 203.211V203.164H243.76L171.063 77.1729C172.157 76.435 173.362 75.8398 174.813 75.8398Z" fill="#09087A"/>
<path opacity="0.5" d="M123.823 75.8398H132.068H140.336C144.823 75.8398 147.875 81.1245 147.875 81.1245V81.1721H147.899L220.603 207.163C219.502 207.901 218.304 208.496 216.846 208.496H208.601H200.333C195.845 208.496 192.793 203.211 192.793 203.211V203.164H192.77L120.081 77.1729C121.175 76.435 122.38 75.8398 123.831 75.8398H123.823Z" fill="#09087A"/>
<path d="M246.163 77.1807C245.069 76.4428 243.864 75.8477 242.413 75.8477H234.168H225.9C221.413 75.8477 218.361 81.1323 218.361 81.1323V81.1799H218.337L102.562 281.942H128.057L246.163 77.1807Z" fill="#09087A"/>
<path d="M195.179 77.1807C194.085 76.4428 192.88 75.8477 191.43 75.8477H183.185H174.916C170.429 75.8477 167.377 81.1323 167.377 81.1323V81.1799H167.353L51.5703 281.942H77.0656L195.179 77.1807Z" fill="#09087A"/>
<path d="M144.197 77.1807C143.103 76.4428 141.898 75.8477 140.447 75.8477H132.203H123.934C119.447 75.8477 116.395 81.1323 116.395 81.1323V81.1799H116.371L0.587891 281.942H26.0832L144.197 77.1807Z" fill="#09087A"/>
<path d="M259.37 186.389L247.375 207.162C248.469 207.9 249.674 208.496 251.125 208.496H267.638C272.125 208.496 275.201 203.163 275.201 203.163L390.984 2.40137H365.489L259.37 186.389Z" fill="#09087A"/>
<path d="M208.387 186.389L196.393 207.162C197.487 207.9 198.692 208.496 200.142 208.496H216.656C221.143 208.496 224.219 203.163 224.219 203.163L340.002 2.40137H314.506L208.387 186.389Z" fill="#09087A"/>
<path d="M310.352 186.389L298.357 207.162C299.451 207.9 300.656 208.496 302.107 208.496H318.62C323.108 208.496 326.183 203.163 326.183 203.163L441.967 2.40137H416.471L310.352 186.389Z" fill="#09087A"/>
</svg>
