<?xml version="1.0" encoding="iso-8859-1"?>
<!-- Uploaded to: SVG Repo, www.svgrepo.com, Generator: SVG Repo Mixer Tools -->
<svg fill="#000000" height="800px" width="800px" version="1.1" id="Capa_1" xmlns="http://www.w3.org/2000/svg" xmlns:xlink="http://www.w3.org/1999/xlink" 
	 viewBox="0 0 470 470" xml:space="preserve">
<g>
	<path d="M100.354,98.138H263.75c4.135,0,7.5,3.364,7.5,7.5s-3.365,7.5-7.5,7.5h-57.5c-13.785,0-25,11.215-25,25s11.215,25,25,25
		c4.142,0,7.5-3.357,7.5-7.5s-3.358-7.5-7.5-7.5c-5.514,0-10-4.486-10-10s4.486-10,10-10h57.5c12.407,0,22.5-10.094,22.5-22.5
		s-10.093-22.5-22.5-22.5H100.354c-4.142,0-7.5,3.357-7.5,7.5S96.212,98.138,100.354,98.138z"/>
	<path d="M228.75,155.638c0,4.143,3.358,7.5,7.5,7.5h179.586c4.142,0,7.5-3.357,7.5-7.5s-3.358-7.5-7.5-7.5H236.25
		C232.108,148.138,228.75,151.495,228.75,155.638z"/>
	<path d="M423.329,315.773c0.077-0.268,0.139-0.541,0.186-0.816c0.012-0.068,0.017-0.136,0.027-0.204
		c0.031-0.215,0.053-0.431,0.065-0.648c0.004-0.083,0.007-0.166,0.009-0.248c0.005-0.217-0.001-0.435-0.015-0.653
		c-0.004-0.066-0.006-0.132-0.012-0.198c-0.052-0.566-0.169-1.131-0.355-1.685c-0.022-0.065-0.049-0.129-0.073-0.194
		c-0.073-0.201-0.154-0.399-0.246-0.595c-0.041-0.089-0.086-0.176-0.131-0.263c-0.041-0.08-0.075-0.161-0.119-0.24l-26.509-47.233
		h5.443c2.663,0,5.126-1.412,6.472-3.711c1.346-2.298,1.372-5.138,0.068-7.46l-40.14-71.52c-1.328-2.365-3.829-3.829-6.541-3.829
		s-5.213,1.464-6.541,3.829l-40.14,71.52c-1.303,2.322-1.277,5.162,0.068,7.46c1.346,2.299,3.809,3.711,6.472,3.711h5.444
		l-25.295,45.069c-1.908,0.636-3.492,1.366-4.929,2.032c-0.11,0.051-0.217,0.1-0.325,0.15c-0.009-0.017-26.518-47.251-26.518-47.251
		h5.444c2.663,0,5.126-1.412,6.472-3.711c1.346-2.298,1.372-5.138,0.068-7.46l-40.14-71.52c-1.328-2.365-3.829-3.829-6.541-3.829
		s-5.213,1.464-6.541,3.829l-40.14,71.52c-1.303,2.322-1.277,5.162,0.068,7.46c1.346,2.299,3.809,3.711,6.472,3.711h5.444
		l-26.51,47.233c-0.106-0.038-0.206-0.085-0.31-0.133c-1.444-0.669-3.036-1.404-4.958-2.042l-25.289-45.059h5.444
		c2.663,0,5.126-1.412,6.472-3.711c1.346-2.298,1.372-5.138,0.068-7.46l-40.14-71.52c-1.328-2.365-3.829-3.829-6.541-3.829
		s-5.213,1.464-6.541,3.829l-40.14,71.52c-1.303,2.322-1.277,5.162,0.068,7.46c1.346,2.299,3.809,3.711,6.472,3.711h5.443
		l-26.51,47.233c-0.044,0.079-0.078,0.16-0.119,0.24c-0.045,0.087-0.089,0.174-0.131,0.263c-0.092,0.196-0.173,0.395-0.246,0.595
		c-0.024,0.065-0.051,0.128-0.073,0.194c-0.186,0.554-0.302,1.118-0.355,1.685c-0.006,0.066-0.008,0.132-0.012,0.198
		c-0.014,0.218-0.02,0.435-0.015,0.653c0.002,0.083,0.004,0.165,0.009,0.248c0.012,0.218,0.034,0.433,0.065,0.648
		c0.01,0.068,0.015,0.136,0.027,0.204c0.047,0.276,0.109,0.548,0.186,0.817c0.017,0.061,0.041,0.12,0.06,0.18
		c0.067,0.213,0.143,0.423,0.229,0.629c0.016,0.038,0.025,0.077,0.042,0.115c8.176,18.744,19.12,36.158,32.529,51.76
		c1.483,1.726,3.581,2.611,5.691,2.611c1.73,0,3.47-0.596,4.885-1.813c3.141-2.699,3.499-7.435,0.799-10.576
		c-8.877-10.329-16.589-21.514-23.032-33.39c2.922,1.051,6.627,1.908,11.883,1.908c8.125,0,12.544-2.049,16.095-3.696
		c2.885-1.337,4.97-2.304,9.786-2.304c4.815,0,6.899,0.967,9.784,2.304c3.551,1.647,7.97,3.696,16.094,3.696
		s12.542-2.05,16.093-3.696c2.884-1.337,4.968-2.304,9.783-2.304s6.898,0.967,9.783,2.304c3.551,1.646,7.97,3.696,16.094,3.696
		c8.123,0,12.542-2.05,16.093-3.696c2.884-1.337,4.968-2.304,9.783-2.304c4.813,0,6.897,0.967,9.781,2.304
		c3.551,1.646,7.969,3.696,16.092,3.696c8.123,0,12.542-2.05,16.092-3.696c2.883-1.337,4.967-2.304,9.78-2.304
		c4.813,0,6.896,0.967,9.779,2.304c3.55,1.646,7.968,3.696,16.09,3.696c8.123,0,12.542-2.05,16.093-3.696
		c2.884-1.337,4.967-2.304,9.781-2.304c4.813,0,6.897,0.967,9.781,2.304c3.551,1.646,7.969,3.696,16.092,3.696
		c6.628,0,10.698-1.35,13.806-2.669c3.812-1.62,5.59-6.023,3.97-9.836s-6.022-5.59-9.835-3.971c-1.757,0.747-3.817,1.476-7.94,1.476
		c-4.813,0-6.897-0.967-9.781-2.304c-2.43-1.127-5.269-2.442-9.421-3.16l26.81-47.769c1.303-2.322,1.277-5.162-0.068-7.46
		c-1.346-2.299-3.809-3.711-6.472-3.711h-5.444l27.33-48.695l27.33,48.695h-5.443c-2.663,0-5.126,1.412-6.472,3.711
		c-1.346,2.298-1.372,5.138-0.068,7.46l27.558,49.102c-1.645,0.585-3.047,1.232-4.331,1.828c-2.884,1.337-4.967,2.304-9.781,2.304
		c-4.123,0-6.183-0.729-7.94-1.476c-3.813-1.618-8.216,0.158-9.835,3.971s0.158,8.216,3.97,9.836
		c3.107,1.319,7.177,2.669,13.805,2.669c5.258,0,8.964-0.858,11.887-1.911C369.091,386.354,305.133,425,235,425
		c-45.331,0-89.255-16.302-123.683-45.901c-3.142-2.702-7.876-2.343-10.577,0.797c-2.701,3.141-2.343,7.876,0.797,10.576
		C138.686,422.411,186.083,440,235,440c81.533,0,155.327-48.399,187.998-123.302c0.017-0.038,0.026-0.078,0.042-0.116
		c0.085-0.205,0.161-0.414,0.228-0.626C423.287,315.895,423.311,315.835,423.329,315.773z M141.298,309.896
		c-2.884,1.337-4.968,2.304-9.783,2.304c-4.815,0-6.899-0.967-9.783-2.304c-3.551-1.646-7.97-3.696-16.094-3.696
		c-8.125,0-12.544,2.049-16.095,3.696c-2.885,1.337-4.97,2.304-9.786,2.304s-6.9-0.967-9.786-2.304
		c-1.285-0.596-2.687-1.244-4.333-1.829l27.557-49.101c1.303-2.322,1.277-5.162-0.068-7.46c-1.346-2.299-3.809-3.711-6.472-3.711
		h-5.443l27.33-48.695l27.33,48.695h-5.444c-2.663,0-5.126,1.412-6.472,3.711c-1.346,2.298-1.372,5.138-0.068,7.46l26.812,47.773
		C146.558,307.458,143.724,308.771,141.298,309.896z M260.888,306.199c-8.123,0-12.542,2.05-16.092,3.696
		c-2.883,1.337-4.967,2.304-9.78,2.304s-6.897-0.967-9.781-2.304c-3.551-1.646-7.969-3.696-16.092-3.696
		c-8.124,0-12.542,2.05-16.093,3.696c-0.916,0.425-1.752,0.812-2.621,1.143l29.225-52.072c1.303-2.322,1.277-5.162-0.068-7.46
		c-1.346-2.299-3.809-3.711-6.472-3.711h-5.444L235,199.1l27.33,48.695h-5.444c-2.663,0-5.126,1.412-6.472,3.711
		c-1.346,2.298-1.372,5.138-0.068,7.46l29.218,52.06c-0.855-0.328-1.681-0.711-2.585-1.13
		C273.429,308.249,269.011,306.199,260.888,306.199z"/>
	<path d="M401.17,68.83C356.785,24.444,297.771,0,235,0S113.215,24.444,68.83,68.83C24.444,113.216,0,172.229,0,235
		s24.444,121.784,68.83,166.17C113.215,445.556,172.229,470,235,470s121.785-24.444,166.17-68.83
		C445.556,356.784,470,297.771,470,235S445.556,113.216,401.17,68.83z M235,455c-121.309,0-220-98.691-220-220S113.691,15,235,15
		s220,98.691,220,220S356.309,455,235,455z"/>
	<path d="M338.75,133.138c4.142,0,7.5-3.357,7.5-7.5v-10c0-4.143-3.358-7.5-7.5-7.5s-7.5,3.357-7.5,7.5v10
		C331.25,129.78,334.608,133.138,338.75,133.138z"/>
	<path d="M368.75,133.138c4.142,0,7.5-3.357,7.5-7.5v-10c0-4.143-3.358-7.5-7.5-7.5s-7.5,3.357-7.5,7.5v10
		C361.25,129.78,364.608,133.138,368.75,133.138z"/>
	<circle cx="398.75" cy="125.638" r="7.5"/>
	<path d="M308.75,133.138c4.142,0,7.5-3.357,7.5-7.5v-10c0-4.143-3.358-7.5-7.5-7.5s-7.5,3.357-7.5,7.5v10
		C301.25,129.78,304.608,133.138,308.75,133.138z"/>
	<path d="M203.75,68.138c4.142,0,7.5-3.357,7.5-7.5v-10c0-4.143-3.358-7.5-7.5-7.5s-7.5,3.357-7.5,7.5v10
		C196.25,64.78,199.608,68.138,203.75,68.138z"/>
	<path d="M233.75,68.138c4.142,0,7.5-3.357,7.5-7.5v-10c0-4.143-3.358-7.5-7.5-7.5s-7.5,3.357-7.5,7.5v10
		C226.25,64.78,229.608,68.138,233.75,68.138z"/>
	<path d="M263.75,68.138c4.142,0,7.5-3.357,7.5-7.5v-10c0-4.143-3.358-7.5-7.5-7.5s-7.5,3.357-7.5,7.5v10
		C256.25,64.78,259.608,68.138,263.75,68.138z"/>
	<circle cx="143.75" cy="60.638" r="7.5"/>
	<path d="M173.75,68.138c4.142,0,7.5-3.357,7.5-7.5v-10c0-4.143-3.358-7.5-7.5-7.5s-7.5,3.357-7.5,7.5v10
		C166.25,64.78,169.608,68.138,173.75,68.138z"/>
</g>
</svg>