<?xml version="1.0" encoding="iso-8859-1"?>
<!-- Uploaded to: SVG Repo, www.svgrepo.com, Generator: SVG Repo Mixer Tools -->
<!DOCTYPE svg PUBLIC "-//W3C//DTD SVG 1.1//EN" "http://www.w3.org/Graphics/SVG/1.1/DTD/svg11.dtd">
<svg fill="#000000" height="800px" width="800px" version="1.1" id="Capa_1" xmlns="http://www.w3.org/2000/svg" xmlns:xlink="http://www.w3.org/1999/xlink" 
	 viewBox="0 0 412.751 412.751" xml:space="preserve">
<path d="M305.886,107.849c-13.08-11.757-26.418-15.839-32.969-17.211V37.648l9.627-9.209c5.683-0.85,10.059-5.748,10.059-11.664
	v-4.967C292.603,5.297,287.306,0,280.794,0H132.002c-6.512,0-11.809,5.297-11.809,11.809v4.967c0,5.896,4.348,10.782,10.003,11.655
	l9.636,9.218v52.989c-6.551,1.372-19.889,5.454-32.969,17.211c-16.221,14.58-35.144,44.315-33.171,103.177
	c1.939,57.939,20.066,105.614,34.931,135.404c11.838,23.726,23.325,39.939,28.86,47.197c-2.108,2.025-3.429,4.862-3.429,8.009
	c0,6.129,4.986,11.115,11.115,11.115h122.41c6.129,0,11.115-4.986,11.115-11.115c0-3.147-1.32-5.985-3.429-8.01
	c5.536-7.257,17.022-23.471,28.86-47.196c14.865-29.79,32.992-77.464,34.933-135.404
	C341.031,152.164,322.108,122.429,305.886,107.849z M132.002,19.584c-1.549,0-2.809-1.26-2.809-2.809v-4.967
	c0-1.549,1.26-2.809,2.809-2.809h148.793c1.549,0,2.809,1.26,2.809,2.809v4.967c0,1.549-1.26,2.809-2.809,2.809H132.002z
	 M148.832,67.513V55.12h115.086v12.393H148.832z M263.918,76.513v13.448H148.832V76.513H263.918z M148.832,46.12V35.726
	c0-1.229-0.502-2.403-1.39-3.252l-4.066-3.89h125.997l-4.065,3.89c-0.888,0.849-1.39,2.024-1.39,3.252V46.12H148.832z
	 M112.464,114.917c14.942-13.648,30.525-15.773,32.101-15.956h123.614c1.629,0.189,17.187,2.329,32.105,15.956
	c9.18,8.386,16.313,19.463,21.31,32.928c-6.751,2.025-11.119,6.227-15.055,10.035c-5.041,4.88-9.022,8.733-17.53,8.733
	c-8.51,0-12.491-3.854-17.532-8.733c-5.456-5.281-11.639-11.267-23.79-11.267s-18.335,5.986-23.79,11.268
	c-5.04,4.879-9.02,8.732-17.528,8.732c-8.508,0-12.488-3.854-17.528-8.732c-5.455-5.281-11.639-11.268-23.79-11.268
	c-12.15,0-18.333,5.985-23.788,11.267c-5.04,4.88-9.02,8.733-17.528,8.733s-12.488-3.854-17.527-8.733
	c-3.934-3.809-8.303-8.007-15.052-10.03C96.15,134.383,103.284,123.304,112.464,114.917z M88.364,156.401
	c4.802,1.389,7.997,4.472,11.582,7.944c5.455,5.281,11.638,11.268,23.788,11.268s18.333-5.985,23.788-11.267
	c5.04-4.88,9.021-8.733,17.528-8.733c8.509,0,12.49,3.855,17.53,8.733c5.455,5.281,11.638,11.267,23.788,11.267
	c12.15,0,18.333-5.985,23.788-11.267c5.04-4.879,9.021-8.733,17.53-8.733c8.509,0,12.49,3.854,17.53,8.733
	c5.456,5.281,11.64,11.267,23.792,11.267c12.15,0,18.334-5.985,23.79-11.267c3.585-3.471,6.796-6.534,11.593-7.924
	c2.77,9.71,4.557,20.479,5.342,32.205c-9.408,1.3-14.802,6.341-19.613,10.883c-4.986,4.707-9.292,8.773-18.199,8.773
	c-8.918,0-13.273-4.072-18.316-8.787c-5.621-5.256-11.992-11.213-24.464-11.213c-12.47,0-18.84,5.957-24.46,11.213
	c-5.042,4.715-9.396,8.787-18.314,8.787c-8.918,0-13.273-4.072-18.315-8.787c-5.62-5.256-11.99-11.213-24.46-11.213
	c-12.47,0-18.84,5.957-24.46,11.213c-5.042,4.715-9.396,8.787-18.313,8.787c-8.904,0-13.209-4.065-18.193-8.771
	c-4.811-4.544-10.203-9.583-19.61-10.882C83.802,176.895,85.591,166.118,88.364,156.401z M267.58,403.751h-122.41
	c-1.166,0-2.115-0.949-2.115-2.115c0-1.166,0.949-2.114,2.115-2.114h122.41c1.166,0,2.115,0.948,2.115,2.114
	C269.695,402.802,268.746,403.751,267.58,403.751z M266.27,390.522H146.482c-3.043-3.858-11.165-14.64-20.647-31.178h161.157
	C277.507,375.834,269.328,386.655,266.27,390.522z M291.979,350.344H120.863c-1.246-2.34-2.504-4.77-3.765-7.286h178.649
	C294.486,345.571,293.228,348.004,291.979,350.344z M300.091,334.058H112.75c-11.624-25.005-22.841-57.137-27.703-94.516
	c5.55,1.271,9.24,4.546,13.335,8.248c5.786,5.232,12.345,11.162,24.513,11.162c12.241,0,18.479-5.977,23.981-11.251
	c5.101-4.888,9.129-8.749,17.756-8.749c8.626,0,12.655,3.861,17.756,8.749c5.503,5.273,11.739,11.251,23.982,11.251
	c12.243,0,18.48-5.977,23.983-11.252c5.1-4.888,9.128-8.748,17.753-8.748c8.627,0,12.656,3.86,17.758,8.749
	c5.504,5.273,11.741,11.251,23.986,11.251c12.167,0,18.731-5.93,24.523-11.16c4.1-3.703,7.77-7.004,13.323-8.274
	C322.672,278.077,310.98,310.574,300.091,334.058z M330.065,210.725c-0.223,6.635-0.67,13.126-1.299,19.473
	c-9.611,1.157-15.322,6.306-20.427,10.915c-5.251,4.743-9.786,8.84-18.49,8.84c-8.629,0-12.658-3.861-17.76-8.749
	c-5.504-5.274-11.741-11.251-23.984-11.251c-12.241,0-18.479,5.978-23.98,11.251c-5.101,4.888-9.129,8.749-17.756,8.749
	c-8.626,0-12.655-3.861-17.756-8.749c-5.503-5.273-11.739-11.251-23.982-11.251c-12.243,0-18.48,5.978-23.983,11.252
	c-5.1,4.888-9.128,8.748-17.753,8.748c-8.702,0-13.231-4.096-18.476-8.838c-5.102-4.614-10.82-9.753-20.441-10.906
	c-0.628-6.357-1.069-12.853-1.291-19.483c-0.149-4.462-0.169-8.809-0.072-13.048c6.093,1.105,9.743,4.518,13.833,8.378
	c5.573,5.264,11.891,11.229,24.373,11.229c12.47,0,18.84-5.957,24.46-11.213c5.042-4.715,9.396-8.787,18.313-8.787
	c8.917,0,13.271,4.071,18.313,8.786c5.62,5.257,11.991,11.214,24.462,11.214c12.47,0,18.84-5.957,24.46-11.213
	c5.042-4.715,9.396-8.787,18.313-8.787c8.92,0,13.274,4.072,18.317,8.787c5.621,5.256,11.992,11.213,24.462,11.213
	c12.483,0,18.803-5.965,24.377-11.228c4.095-3.865,7.735-7.293,13.838-8.396C330.234,201.904,330.214,206.257,330.065,210.725z"/>
</svg>