<?xml version="1.0" encoding="utf-8"?>

<!DOCTYPE svg PUBLIC "-//W3C//DTD SVG 1.1//EN" "http://www.w3.org/Graphics/SVG/1.1/DTD/svg11.dtd">
<!-- Uploaded to: SVG Repo, www.svgrepo.com, Generator: SVG Repo Mixer Tools -->
<svg height="800px" width="800px" version="1.1" id="_x32_" xmlns="http://www.w3.org/2000/svg" xmlns:xlink="http://www.w3.org/1999/xlink" 
	 viewBox="0 0 512 512"  xml:space="preserve">
<style type="text/css">
	.st0{fill:#000000;}
</style>
<g>
	<path class="st0" d="M511.394,185.782l-1.101-5.372c-2.292-11.066-10.922-21.541-23.449-28.462l-35.042-19.375
		c-13.403-7.404-36.869-15.569-52.242-16.697l-17.825-1.2c-10.896-0.806-27.665,2.542-37.361,5.157l-197.81,54.175l-87.633,19.535
		c-5.792,1.54-49.689-2.363-57.738,29.814c-12.23,48.893,71.168,103.757,172.786,80.99l312.346-84.052
		C504.545,215.434,514.653,201.512,511.394,185.782z"/>
	<path class="st0" d="M230.034,307.786c-26.044-1.352-44.595,17.78-45.759,42.526c-1.164,24.764,15.506,45.715,41.542,47.066
		c26.035,1.352,44.586-17.771,45.75-42.536C272.732,330.097,256.07,309.137,230.034,307.786z M233.974,370.376
		c-7.081-0.376-12.48-7.995-12.05-17.028c0.421-9.042,6.499-16.08,13.59-15.704c7.073,0.358,12.471,7.986,12.05,17.028
		C247.136,363.716,241.047,370.735,233.974,370.376z"/>
	<path class="st0" d="M446.601,249.331c-26.044-1.352-44.596,17.78-45.759,42.527c-1.164,24.764,15.507,45.714,41.542,47.066
		c26.036,1.352,44.586-17.772,45.751-42.536C489.298,271.642,472.636,250.683,446.601,249.331z M450.54,311.921
		c-7.082-0.376-12.48-7.994-12.051-17.028c0.421-9.042,6.5-16.08,13.591-15.704c7.072,0.359,12.471,7.986,12.05,17.03
		C463.701,305.261,457.613,312.28,450.54,311.921z"/>
</g>
</svg>