<?xml version="1.0" encoding="utf-8"?>
<!-- Generator: Adobe Illustrator 16.0.0, SVG Export Plug-In . SVG Version: 6.00 Build 0)  -->
<!DOCTYPE svg PUBLIC "-//W3C//DTD SVG 1.1//EN" "http://www.w3.org/Graphics/SVG/1.1/DTD/svg11.dtd">
<svg version="1.1" id="Layer_1" xmlns="http://www.w3.org/2000/svg" xmlns:xlink="http://www.w3.org/1999/xlink" x="0px" y="0px"
	 width="800px" height="228.151px" viewBox="0 0 800 228.151" enable-background="new 0 0 800 228.151" xml:space="preserve">
<g>
	<g>
		<path fill="#E61E26" d="M151.974,114.087c0,35.563-5.435,69.815-15.451,101.958c-0.03,0.099-0.264,0.697-0.467,0.906
			c-0.282,0.29-0.717,0.465-0.812,0.503c-17.71,6.901-36.908,10.696-56.967,10.696c-20.219,0-39.556-3.862-57.385-10.875
			c-0.124-0.077-0.251-0.156-0.362-0.271c-0.163-0.17-0.338-0.567-0.419-0.776C10.056,184.04,4.596,149.727,4.596,114.087v-0.019
			c0-35.636,5.46-69.955,15.515-102.144c0.081-0.209,0.257-0.606,0.419-0.775c0.111-0.114,0.238-0.198,0.362-0.276
			C38.722,3.864,58.059,0,78.277,0c20.06,0,39.257,3.796,56.967,10.696c0.094,0.039,0.53,0.216,0.812,0.507
			c0.204,0.212,0.438,0.804,0.467,0.905c10.016,32.138,15.451,66.395,15.451,101.961V114.087z"/>
		<path fill="#FFFFFF" d="M78.277,7.807c17.622,0,35.05,3.158,51.809,9.361c9.497,31.368,14.311,63.968,14.311,96.9
			c0,32.938-4.814,65.538-14.311,96.914c-16.75,6.197-34.17,9.359-51.809,9.359c-17.573,0-34.994-3.165-51.788-9.378
			c-9.495-31.389-14.315-63.98-14.315-96.877c0-32.915,4.82-65.51,14.315-96.9C43.282,10.974,60.704,7.807,78.277,7.807z
			 M29.02,19.743c-9.083,30.59-13.718,62.313-13.718,94.344c0,32.017,4.635,63.729,13.718,94.324
			c16.003,5.729,32.555,8.708,49.258,8.708c16.759,0,33.314-2.964,49.28-8.693c9.083-30.58,13.708-62.304,13.708-94.357
			c0-32.049-4.626-63.776-13.708-94.345c-15.982-5.722-32.536-8.691-49.28-8.691C61.574,11.033,45.019,14.005,29.02,19.743z"/>
		<path fill="#FFFFFF" d="M109.579,130.426c-6.589-7.95-16.341-13.036-27.163-13.036c-7.891,0-15.153,2.731-21.008,7.271
			c-0.377-19.369,0.657-39.36,3.763-58.242c3.394-20.358,5.495-24.328,14.417-33.586C84,28.25,88,23.943,89.301,22.676
			c0.396-0.4,0.019-0.762-0.463-0.349c0.262-0.215-5.02,3.867-11.207,7.818c-6.162,3.945-13.2,7.737-15.304,8.779
			c-9.568,4.655-13.541,6.439-16.809,7.778c-2.118,0.838-4.573,2.064-5.279,2.706c-0.691,0.625-0.294,0.612,0.717,0.49
			c4.536-0.618,8.171-1.983,11.779-1.983c2.675,0,4.826,0.191,4.826,5.55c0,4.722-4.158,29.773-4.158,59.007
			c0,21.08,6.382,59.918,14.176,87.208l0.011,0.061c0.259,0.975,1.131,2.273,1.749,2.034c0.618-0.236,0.751-1.375,0.425-2.891
			c-3.983-18.189-7.169-41.586-8.133-66.407c5.497-4.479,12.395-7.184,19.927-7.184c7.22,0,14.678,2.666,20.762,7.013
			c0.577,0.43,0.516,0.804,0.445,1.391c-0.118,0.876-11.084,65.847-11.084,65.847c-0.17,0.837,0,2.147,0.549,2.27
			c0.54,0.13,1.226-0.99,1.414-1.828c0.112-0.496,16.195-64.871,16.502-66.243C110.48,132.235,110.299,131.417,109.579,130.426z"/>
	</g>
	<g>
		<path d="M225.145,93.895V70.289H207.05v23.606h-16.434V34.026h16.434v21.811h18.095V34.026h16.431v59.869H225.145z"/>
		<path d="M290.991,93.895l-3.151-10.519H270.41l-3.157,10.519h-17.261l21.08-59.869h16.269l21.076,59.869H290.991z M282.859,66.272
			c-2.078-7.7-2.991-10.947-3.737-14.966c-0.745,4.019-1.661,7.354-3.733,14.966l-1.082,3.934h9.628L282.859,66.272z"/>
		<path d="M338.432,94.836c-17.264,0-26.475-13.171-26.475-30.87c0-19.246,10.958-30.88,26.555-30.88
			c14.28,0,19.922,6.333,23.906,17.622l-14.605,5.899c-2.079-5.56-4.068-9.064-9.381-9.064c-6.721,0-9.63,6.927-9.63,16.423
			c0,9.144,2.822,16.417,9.797,16.417c5.06,0,7.221-2.822,10.373-8.468l13.612,7.438C358.68,87.225,352.21,94.836,338.432,94.836z"
			/>
		<path d="M371.827,93.895V34.026h44.486v13.949h-28.545v7.945h17.179v13.768h-17.179v10.269h29.13v13.938H371.827z"/>
		<path d="M457.179,48.484v45.411H441.08V48.484h-16.266V34.026h48.633v14.458H457.179z"/>
		<path d="M513.585,48.484v45.411h-16.102V48.484h-16.266V34.026h48.633v14.458H513.585z"/>
		<path d="M538.793,93.895V34.026h44.485v13.949h-28.549v7.945h17.182v13.768h-17.182v10.269h29.133v13.938H538.793z"/>
		<path d="M618.939,74.479h-8.048v19.416h-15.847V34.026h24.974c13.614,0,22.661,5.394,22.661,19.842
			C642.68,69.096,632.884,74.479,618.939,74.479z M619.605,47.543h-8.714v13.423h8.469c5.228,0,7.307-2.306,7.307-6.839
			C626.667,50.196,624.751,47.543,619.605,47.543z"/>
		<path d="M651.301,93.895V34.026h44.478v13.949h-28.545v7.945h17.174v13.768h-17.174v10.269h29.128v13.938H651.301z"/>
	</g>
	<g>
		<path d="M215.932,198.675c-14.607,0-25.315-7.523-25.315-26.517v-34.29h16.434v34.29c0,7.364,2.821,11.896,9.129,11.896
			c6.307,0,8.966-4.532,8.966-11.896v-34.29h16.431v34.29C241.576,191.152,230.537,198.675,215.932,198.675z M206.22,133.594
			c-3.901,0-7.388-3.42-7.388-7.347c0-4.198,3.486-7.532,7.388-7.532c3.904,0,7.386,3.334,7.386,7.532
			C213.605,130.174,210.124,133.594,206.22,133.594z M226.057,133.594c-3.985,0-7.47-3.42-7.47-7.347
			c0-4.198,3.485-7.532,7.47-7.532c3.817,0,7.303,3.334,7.303,7.532C233.359,130.174,229.874,133.594,226.057,133.594z"/>
		<path d="M292.043,197.731l-13.861-19.748c-2.569-3.683-7.55-11.374-9.045-14.024c0.417,2.65,0.495,10.601,0.495,15.472v18.301
			h-15.433v-59.862h14.19l12.779,17.701c2.659,3.684,7.804,11.634,9.05,14.11c-0.418-2.645-0.497-10.598-0.497-15.474v-16.338
			h15.431v59.862H292.043z"/>
		<path d="M318.352,197.731v-59.862h16.436v59.862H318.352z M326.572,131.885c-4.068,0-7.806-3.681-7.806-7.775
			c0-4.453,3.737-7.957,7.806-7.957c4.147,0,7.799,3.504,7.799,7.957C334.371,128.205,330.719,131.885,326.572,131.885z"/>
		<path d="M379.55,197.731h-16.266l-20.002-59.862h18.091l4.232,16.079c1.992,7.442,4.813,19.583,5.896,25.315
			c1.075-5.732,3.896-17.789,5.885-25.315l4.237-16.079h17.924L379.55,197.731z"/>
		<path d="M408.01,197.731v-59.862h44.482v13.938h-28.55v7.954h17.182v13.771h-17.182v10.266h29.133v13.935H408.01z"/>
		<path d="M496.041,197.731l-9.463-20.178h-6.469v20.178h-15.855v-59.862h25.977c13.608,0,22.661,5.307,22.661,19.499
			c0,8.982-4.07,14.541-10.463,17.534l11.623,22.829H496.041z M489.817,151.387h-9.708v13.085h9.455c5.23,0,7.306-2.399,7.306-6.678
			C496.87,154.039,494.877,151.387,489.817,151.387z"/>
		<path d="M545.292,198.675c-9.378,0-18.428-3.158-24.483-7.272l7.801-12.993c4.232,2.995,11.619,5.98,17.012,5.98
			c5.729,0,7.557-1.024,7.557-3.847c0-2.221-2.078-3.593-9.878-5.47c-14.026-3.337-20.745-7.276-20.745-19.245
			c0-11.29,8.874-18.901,22.904-18.901c9.869,0,17.011,2.484,23.151,6.934l-7.801,12.996c-5.141-3.592-10.291-5.641-16.187-5.641
			c-4.81,0-5.975,1.534-5.975,3.672c0,2.221,2.078,3.249,9.545,5.043c14.609,3.601,21.086,8.213,21.086,19.42
			C569.279,193.03,559.236,198.675,545.292,198.675z"/>
		<path d="M580.281,197.731v-59.862h16.434v59.862H580.281z M588.495,131.885c-4.066,0-7.793-3.681-7.793-7.775
			c0-4.453,3.727-7.957,7.793-7.957c4.155,0,7.807,3.504,7.807,7.957C596.302,128.205,592.65,131.885,588.495,131.885z"/>
		<path d="M638.104,152.325v45.406h-16.106v-45.406h-16.262v-14.456h48.629v14.456H638.104z"/>
		<path d="M663.307,197.731v-59.862h44.485v13.938h-28.546v7.954h17.176v13.771h-17.176v10.266h29.127v13.935H663.307z"/>
		<path d="M741.157,198.675c-9.382,0-18.427-3.158-24.485-7.272l7.803-12.993c4.233,2.995,11.62,5.98,17.016,5.98
			c5.726,0,7.549-1.024,7.549-3.847c0-2.221-2.077-3.593-9.878-5.47c-14.024-3.337-20.745-7.276-20.745-19.245
			c0-11.29,8.879-18.901,22.904-18.901c9.877,0,17.016,2.484,23.156,6.934l-7.8,12.996c-5.146-3.592-10.292-5.641-16.188-5.641
			c-4.81,0-5.979,1.534-5.979,3.672c0,2.221,2.085,3.249,9.545,5.043c14.61,3.601,21.086,8.213,21.086,19.42
			C765.142,193.03,755.102,198.675,741.157,198.675z"/>
		<path d="M776.143,197.731v-59.862h16.436v59.862H776.143z M784.361,131.885c-4.063,0-7.796-3.681-7.796-7.775
			c0-4.453,3.732-7.957,7.796-7.957c4.15,0,7.802,3.504,7.802,7.957C792.163,128.205,788.512,131.885,784.361,131.885z"/>
	</g>
</g>
</svg>
